<?xml version="1.0" encoding="utf-8"?>
<!-- Generator: Adobe Illustrator 24.1.2, SVG Export Plug-In . SVG Version: 6.00 Build 0)  -->
<svg xmlns="http://www.w3.org/2000/svg" xmlns:xlink="http://www.w3.org/1999/xlink" width="850" height="489" viewBox="0 0 850 489">
<style type="text/css">
	.st0{clip-path:url(#SVGID_2_);}
	.st1{fill-rule:evenodd;clip-rule:evenodd;fill:#FFFFFF;}
	.st2{fill-rule:evenodd;clip-rule:evenodd;fill:#FF1744;}
	.st3{opacity:0.343;fill:#F5F5F5;enable-background:new    ;}
	.st4{fill:#212121;stroke:#212121;stroke-width:0.4;}
	.st5{fill:#FFFFFF;stroke:#FFFFFF;stroke-width:0.4;}
	.st6{fill-rule:evenodd;clip-rule:evenodd;}
	.st7{fill:none;stroke:#FFFFFF;stroke-linejoin:round;}
	.st8{fill:none;stroke:#231F20;stroke-width:1.5;stroke-miterlimit:10;}
	.st9{fill:#FFFFFF;stroke:#000000;stroke-width:0.2;}
	.st10{fill:#FFFFFF;}
	.st11{fill:#212121;}
	.st12{fill:none;stroke:#000000;stroke-linejoin:round;}
	.st13{opacity:0.347;fill:#F5F5F5;enable-background:new    ;}
	.st14{fill:none;}
	.st15{fill:#8D8D8D;}
	.st16{fill-rule:evenodd;clip-rule:evenodd;fill:#8D8D8D;}
	.st17{fill:#8D8D8D;stroke:#8D8D8D;stroke-width:0.2;}
	.st18{fill:#FF1744;}
	.st19{fill:#FF1744;stroke:#FF1744;stroke-width:0.2;}
	.st20{fill:none;stroke:#4A4A4A;stroke-width:0.5;stroke-miterlimit:10;}
	.st21{fill-rule:evenodd;clip-rule:evenodd;fill:url(#Path_22_1_);}
	.st22{fill:#FFFFFF;stroke:#1D1D1B;stroke-width:1.136;stroke-linecap:round;stroke-linejoin:round;stroke-miterlimit:10;}
	.st23{fill:#6C6C6C;}
	.st24{fill-rule:evenodd;clip-rule:evenodd;fill:#6C6C6C;}
	.st25{fill:none;stroke:#E6294B;stroke-width:2;stroke-linecap:round;stroke-miterlimit:10;}
	.st26{fill:none;stroke:#E6294B;stroke-width:2;stroke-linecap:round;stroke-linejoin:round;stroke-miterlimit:10;}
	.st27{fill:none;stroke:#212121;stroke-linecap:round;stroke-linejoin:round;stroke-miterlimit:10;}
	.st28{fill:#FFFFFF;stroke:#212121;stroke-miterlimit:10;}
	.st29{fill:#FFC350;}
	.st30{fill-rule:evenodd;clip-rule:evenodd;fill:#FFD164;}
	.st31{fill-rule:evenodd;clip-rule:evenodd;fill:#FFF6D8;}
	.st32{fill:#FFFFFF;stroke:#212121;}
	.st33{fill:none;stroke:#212121;stroke-linecap:round;}
	.st34{fill:#FFFFFF;stroke:#212121;stroke-width:0.875;stroke-linecap:round;stroke-linejoin:round;}
	.st35{font-family:'ArialMT';}
	.st36{font-size:9px;}
	.st37{fill:none;stroke:#212121;stroke-width:0.875;stroke-linecap:round;stroke-linejoin:round;}
	.st38{fill:none;stroke:#212121;stroke-linecap:round;stroke-linejoin:round;}
	.st39{fill:none;stroke:#212121;}
	.st40{fill:#3C5A9A;}
	.st41{fill:#2DAAE1;}
	.st42{fill:#2CB742;}
	.st43{fill:#EE2849;}
</style>
<g>
	<defs>
		<rect id="SVGID_1_" width="850" height="244.5"/>
	</defs>
	<clipPath id="SVGID_2_">
		<use xlink:href="#SVGID_1_"  style="overflow:visible;"/>
	</clipPath>
	<g id="m_site_icon1" class="st0">
		<g id="white_logo">
			<path id="Path_1" class="st1" d="M0,0v1.6h1.5v3.9h2.1V1.6h1.5V0H0z M6.8,0L4.7,5.5h2.1L8,2.2l1.2,3.3h2.1L9.1,0H6.8z M10.8,0
				v1.6h1.5v3.9h2.1V1.6H16V0H10.8L10.8,0z M17.6,0l-2.1,5.5h2.1l1.2-3.3L20,5.5h2.1L20,0H17.6z M0,13.8c0-3.7,2-5.5,5.5-5.5
				C7.2,8.2,8.7,8.8,9.8,10c0.1,0.1,0.2,0.3,0.2,0.5c0,0.5-0.5,0.9-1,0.8c-0.3,0-0.5-0.1-0.7-0.3c-0.7-0.8-1.7-1.2-2.8-1.1
				c-2.4,0-3.4,1.3-3.4,3.9c0,2.8,1.1,3.9,3.4,3.9c1.1,0.1,2.1-0.3,2.9-1c0.2-0.2,0.5-0.3,0.8-0.3c0.5,0,0.9,0.4,1,0.8c0,0,0,0,0,0
				c0,0.2-0.1,0.3-0.2,0.5c-1.2,1.2-2.8,1.8-4.4,1.7C2,19.3,0,17.7,0,13.8 M16.6,17.6c0.5,0,0.9,0.4,0.9,0.9c0,0.5-0.4,0.9-0.9,0.9
				H12c-0.5,0-0.9-0.4-0.9-0.9c0,0,0,0,0-0.1V9.2c0-0.5,0.4-0.9,0.9-1c0.5,0,0.9,0.4,1,0.9c0,0,0,0.1,0,0.1v8.4H16.6z M21.2,18.4
				c0,0.5-0.4,0.9-0.9,1c-0.5,0-0.9-0.4-1-0.9c0,0,0-0.1,0-0.1V12c0-0.5,0.4-0.9,0.9-1s0.9,0.4,1,0.9c0,0,0,0.1,0,0.1
				C21.2,12,21.2,18.4,21.2,18.4z M34,20.3c-0.3,0-0.5-0.1-0.7-0.3l-1.3-1.3l-0.4,0.2c-0.1,0-0.2,0.1-0.2,0.1l0,0
				c-0.6,0.3-1.2,0.5-1.8,0.6c-0.3,0-0.6,0.1-0.9,0.1c-0.5,0-1-0.1-1.4-0.2c-0.7-0.2-1.4-0.5-2-0.9c-0.6-0.4-1.1-1-1.5-1.6
				c-0.1-0.2-0.2-0.3-0.3-0.5c-0.2-0.5-0.4-1-0.5-1.5l0-0.1l0-0.1l0-0.1c0-0.3-0.1-0.5-0.1-0.8c0-2,1.1-3.8,2.8-4.9
				c0.3-0.2,0.5-0.3,0.8-0.4c0.4-0.2,0.9-0.3,1.4-0.4c0.8-0.1,1.6-0.1,2.3,0.1h0c0.1,0,0.1,0,0.2,0.1l0,0c1.2,0.4,2.2,1.1,3,2.2
				c0.1,0.1,0.2,0.2,0.2,0.3c0.3,0.5,0.5,1,0.7,1.6c0.1,0.2,0.1,0.5,0.1,0.7c0.1,0.7,0,1.4-0.1,2.1c-0.1,0.6-0.4,1.1-0.6,1.6
				l-0.2,0.4l1.3,1.3c0.4,0.4,0.4,1,0,1.3C34.5,20.2,34.3,20.3,34,20.3 M28.8,9.9c-0.2,0-0.4,0-0.6,0c-0.6,0.1-1.1,0.3-1.6,0.6l0,0
				c-0.5,0.3-0.9,0.7-1.2,1.1c-0.3,0.4-0.6,0.9-0.7,1.4c-0.1,0.5-0.2,1.1-0.1,1.6c0.1,0.5,0.3,1.1,0.6,1.5c0.3,0.5,0.6,0.9,1.1,1.2
				c1.2,0.9,2.7,1.1,4.1,0.5c0.7-0.3,1.3-0.8,1.7-1.4c0.3-0.4,0.5-0.9,0.7-1.4c0.1-0.5,0.2-1.1,0.1-1.6c-0.2-1.1-0.7-2.1-1.6-2.7
				C30.5,10.1,29.7,9.9,28.8,9.9"/>
			<path id="Path_2" class="st2" d="M21.9,9.1c0.5,0.5,0.5,1.3,0,1.8s-1.3,0.5-1.8,0l-1.5-1.5c-0.5-0.5-0.5-1.3,0-1.8
				c0.5-0.5,1.2-0.5,1.7,0L21.9,9.1L21.9,9.1z"/>
		</g>
		<g id="cart_black" transform="translate(378)">
			<circle id="Ellipse_1" class="st3" cx="14.5" cy="14.5" r="14.5"/>
			<path id="Path_3" class="st4" d="M21.1,9.2c0-0.2-0.2-0.4-0.5-0.4h-2.4c-0.2-2.3-2.3-4-4.6-3.8c-2,0.2-3.6,1.8-3.8,3.8H7.4
				C7.2,8.8,7,9,6.9,9.2L6,22.5C6,22.8,6.2,23,6.5,23h15.1c0.3,0,0.5-0.2,0.5-0.5c0,0,0,0,0,0L21.1,9.2z M14,5.9
				c1.6,0,3,1.2,3.2,2.8h-6.5C11,7.2,12.4,6,14,5.9z M7.8,9.7h1.9v2.4c0,0.3,0.2,0.5,0.5,0.5c0.3,0,0.5-0.2,0.5-0.5c0,0,0,0,0,0V9.7
				h6.6v2.4c0,0.3,0.2,0.5,0.5,0.5c0.3,0,0.5-0.2,0.5-0.5V9.7h1.9l0.7,9H7.2L7.8,9.7z M7,22.1l0.2-2.4h13.7l0.2,2.4H7L7,22.1z"/>
		</g>
		<path id="cart_white" class="st5" d="M178.8,5.7c0-0.3-0.3-0.5-0.5-0.5h-2.7c-0.3-2.6-2.6-4.5-5.2-4.2c-2.2,0.2-3.9,2-4.2,4.2
			h-2.7c-0.3,0-0.5,0.2-0.5,0.5L162,20.4c0,0.3,0.2,0.6,0.5,0.6h16.8c0.3,0,0.5-0.3,0.5-0.6c0,0,0,0,0,0L178.8,5.7z M170.9,2.1
			c1.8,0,3.4,1.3,3.6,3.2h-7.3C167.6,3.4,169.1,2.1,170.9,2.1L170.9,2.1z M164.1,6.3h2.2v2.6c0,0.3,0.2,0.5,0.5,0.5
			c0.3,0,0.5-0.2,0.5-0.5V6.3h7.4v2.6c0,0.3,0.2,0.5,0.5,0.5c0.3,0,0.5-0.2,0.5-0.5V6.3h2.2l0.7,10h-15.2L164.1,6.3z M163.1,20
			l0.2-2.6h15.3l0.2,2.6H163.1z"/>
		<g id="logo_black" transform="translate(201)">
			<path id="Path_4" class="st6" d="M0,0v1.6h1.5v3.9h2.1V1.6h1.5V0H0z M6.8,0L4.7,5.5h2.1L8,2.2l1.2,3.3h2.1L9.1,0H6.8z M10.8,0
				v1.6h1.5v3.9h2.1V1.6H16V0H10.8L10.8,0z M17.6,0l-2.1,5.5h2.1l1.2-3.3L20,5.5h2.1L20,0H17.6z M0,13.8c0-3.7,2-5.5,5.5-5.5
				C7.2,8.2,8.7,8.8,9.8,10c0.1,0.1,0.2,0.3,0.2,0.5c0,0.5-0.5,0.9-1,0.8c-0.3,0-0.5-0.1-0.7-0.3c-0.7-0.8-1.7-1.2-2.8-1.1
				c-2.4,0-3.4,1.3-3.4,3.9c0,2.8,1.1,3.9,3.4,3.9c1.1,0.1,2.1-0.3,2.9-1c0.2-0.2,0.5-0.3,0.8-0.3c0.5,0,0.9,0.4,1,0.8c0,0,0,0,0,0
				c0,0.2-0.1,0.3-0.2,0.5c-1.2,1.2-2.8,1.8-4.4,1.7C2,19.3,0,17.7,0,13.8 M16.6,17.6c0.5,0,0.9,0.4,0.9,0.9c0,0.5-0.4,0.9-0.9,0.9
				H12c-0.5,0-0.9-0.4-0.9-0.9c0,0,0,0,0-0.1V9.2c0-0.5,0.4-0.9,0.9-1c0.5,0,0.9,0.4,1,0.9c0,0,0,0.1,0,0.1v8.4H16.6z M21.2,18.4
				c0,0.5-0.4,0.9-0.9,1c-0.5,0-0.9-0.4-1-0.9c0,0,0-0.1,0-0.1V12c0-0.5,0.4-0.9,0.9-1s0.9,0.4,1,0.9c0,0,0,0.1,0,0.1
				C21.2,12,21.2,18.4,21.2,18.4z M34,20.3c-0.3,0-0.5-0.1-0.7-0.3l-1.3-1.3l-0.4,0.2c-0.1,0-0.2,0.1-0.2,0.1l0,0
				c-0.6,0.3-1.2,0.5-1.8,0.6c-0.3,0-0.6,0.1-0.9,0.1c-0.5,0-1-0.1-1.4-0.2c-0.7-0.2-1.4-0.5-2-0.9c-0.6-0.4-1.1-1-1.5-1.6
				c-0.1-0.2-0.2-0.3-0.3-0.5c-0.2-0.5-0.4-1-0.5-1.5l0-0.1l0-0.1l0-0.1c0-0.3-0.1-0.5-0.1-0.8c0-2,1.1-3.8,2.8-4.9
				c0.3-0.2,0.5-0.3,0.8-0.4c0.4-0.2,0.9-0.3,1.4-0.4c0.8-0.1,1.6-0.1,2.3,0.1h0c0.1,0,0.1,0,0.2,0.1l0,0c1.2,0.4,2.2,1.1,3,2.2
				c0.1,0.1,0.2,0.2,0.2,0.3c0.3,0.5,0.5,1,0.7,1.6c0.1,0.2,0.1,0.5,0.1,0.7c0.1,0.7,0,1.4-0.1,2.1c-0.1,0.6-0.4,1.1-0.6,1.6
				l-0.2,0.4l1.3,1.3c0.4,0.4,0.4,1,0,1.3C34.5,20.2,34.3,20.3,34,20.3 M28.8,9.9c-0.2,0-0.4,0-0.6,0c-0.6,0.1-1.1,0.3-1.6,0.6l0,0
				c-0.5,0.3-0.9,0.7-1.2,1.1c-0.3,0.4-0.6,0.9-0.7,1.4c-0.1,0.5-0.2,1.1-0.1,1.6c0.1,0.5,0.3,1.1,0.6,1.5c0.3,0.5,0.6,0.9,1.1,1.2
				c1.2,0.9,2.7,1.1,4.1,0.5c0.7-0.3,1.3-0.8,1.7-1.4c0.3-0.4,0.5-0.9,0.7-1.4c0.1-0.5,0.2-1.1,0.1-1.6c-0.2-1.1-0.7-2.1-1.6-2.7
				C30.5,10.1,29.7,9.9,28.8,9.9"/>
			<path id="Path_5" class="st2" d="M21.9,9.1c0.5,0.5,0.5,1.3,0,1.8s-1.3,0.5-1.8,0l-1.5-1.5c-0.5-0.5-0.5-1.3,0-1.8
				c0.5-0.5,1.2-0.5,1.7,0L21.9,9.1L21.9,9.1z"/>
		</g>
		<g id="mobile-white" transform="translate(54)">
			<path id="Path_6" class="st7" d="M0.8,4.4h15 M1,19.6h14.8 M1,1h14.8v22H1V1z"/>
			<path id="Path_7" class="st1" d="M12.2,16.9c-0.2,0-0.4-0.1-0.5-0.2l-1-1l-0.3,0.2c-0.1,0-0.1,0.1-0.2,0.1l0,0
				c-0.4,0.2-0.9,0.4-1.4,0.4c-0.2,0-0.4,0-0.6,0c-0.4,0-0.7,0-1.1-0.1C6,16,4.9,15.2,4.4,14c-0.2-0.4-0.3-0.7-0.4-1.1l0,0l0,0
				l0-0.1c-0.2-1.7,0.6-3.3,2-4.2c0.2-0.1,0.4-0.2,0.6-0.3C7,8.1,7.3,8,7.7,7.9C8.2,7.8,8.8,7.9,9.4,8h0c0,0,0.1,0,0.1,0h0
				c1.6,0.5,2.8,1.9,3,3.6c0.1,0.5,0,1.1-0.1,1.6c-0.1,0.4-0.3,0.8-0.5,1.2l-0.2,0.3l1,1c0.3,0.3,0.3,0.7,0,1
				C12.6,16.8,12.4,16.9,12.2,16.9 M8.3,9.1c-0.6,0-1.2,0.2-1.7,0.5l0,0C6.3,9.8,6,10.1,5.8,10.4c-0.2,0.3-0.4,0.7-0.5,1.1
				c-0.1,0.4-0.1,0.8-0.1,1.2c0.1,0.4,0.2,0.8,0.4,1.1c0.2,0.3,0.5,0.6,0.8,0.9c0.9,0.7,2.1,0.8,3.1,0.4c0.5-0.2,1-0.6,1.3-1
				c0.2-0.3,0.4-0.7,0.5-1.1c0.1-0.4,0.1-0.8,0.1-1.2c-0.1-0.8-0.6-1.5-1.2-2C9.6,9.3,9,9.1,8.3,9.1"/>
		</g>
		<g id="search_black" transform="translate(292 2)">
			<circle id="Ellipse_2" class="st8" cx="7" cy="7" r="7"/>
			<path id="Path_10" class="st8" d="M12.1,13.1L17,18"/>
		</g>
		<path id="search_white" class="st9" d="M107.7,19.2l-4.8-4.8c2.8-3.6,2.1-8.8-1.5-11.6s-8.8-2.1-11.6,1.5s-2.1,8.8,1.5,11.6
			c1.5,1.1,3.2,1.7,5.1,1.7c1.8,0,3.6-0.6,5.1-1.7l4.8,4.8c0.4,0.4,1,0.4,1.4,0c0,0,0,0,0,0C108.1,20.3,108.1,19.6,107.7,19.2
			C107.7,19.2,107.7,19.2,107.7,19.2z M91.9,13.7c-2.4-2.4-2.4-6.4,0-8.8s6.4-2.4,8.8,0c2.4,2.4,2.4,6.4,0,8.8
			c-1.2,1.2-2.8,1.8-4.4,1.8C94.7,15.5,93.1,14.9,91.9,13.7L91.9,13.7z"/>
		<g id="whishlist_white" transform="translate(129 1)">
			<path id="Path_11" class="st10" d="M0,1.9v16.1c0,0.5,0.2,1,0.6,1.4C0.9,19.8,1.4,20,1.9,20c0.4,0,0.8-0.1,1.2-0.4l3.4-2.7
				l3.4,2.7c0.3,0.3,0.7,0.4,1.2,0.4c0.8,0,1.4-0.5,1.7-1.2c0.1-0.2,0.2-0.5,0.2-0.8V1.9C13,0.9,12.2,0,11.1,0H1.9
				C0.8,0,0,0.9,0,1.9z M11.6,1.9v16.1c0,0.1-0.1,0.3-0.2,0.4c-0.1,0.1-0.2,0.1-0.4,0.1c-0.1,0-0.2,0-0.3-0.1l-4-3.1
				c-0.2-0.1-0.4-0.1-0.6,0l-4,3.1c-0.1,0.1-0.2,0.1-0.3,0.1c-0.1,0-0.3,0-0.4-0.1c-0.1-0.1-0.1-0.2-0.2-0.4V1.9
				c0-0.3,0.2-0.5,0.5-0.5c0,0,0,0,0,0h9.2C11.4,1.4,11.6,1.6,11.6,1.9C11.6,1.9,11.6,1.9,11.6,1.9z"/>
			<path id="Path_12" class="st10" d="M1.9,20c-0.5,0-1-0.2-1.3-0.5c-0.2-0.2-0.3-0.4-0.4-0.6C0.1,18.6,0,18.3,0,18.1V1.9
				C0,0.9,0.9,0,1.9,0h9.2C12.1,0,13,0.9,13,1.9v16.1c0,0.3-0.1,0.5-0.2,0.8c-0.1,0.2-0.2,0.4-0.4,0.6C12,19.8,11.6,20,11.1,20
				c-0.4,0-0.8-0.1-1.2-0.4L6.5,17l-3.4,2.6C2.7,19.9,2.3,20,1.9,20z M1.9,0C0.9,0,0,0.9,0,1.9v16.1c0,0.3,0.1,0.5,0.2,0.8
				c0.3,0.7,1,1.1,1.7,1.1c0.4,0,0.8-0.1,1.1-0.4l3.4-2.7l0,0l3.4,2.7c0.7,0.6,1.8,0.5,2.4-0.1c0.2-0.2,0.3-0.4,0.4-0.6
				c0.1-0.2,0.2-0.5,0.2-0.8V1.9c0-1-0.8-1.9-1.9-1.9L1.9,0L1.9,0z M11.1,18.6c-0.1,0-0.2,0-0.3-0.1l-4-3.1c-0.2-0.1-0.4-0.1-0.6,0
				l-4,3.1c-0.1,0.1-0.2,0.1-0.3,0.1c-0.3,0-0.5-0.2-0.5-0.5V1.9c0-0.3,0.2-0.5,0.5-0.5h9.2c0.3,0,0.5,0.2,0.5,0.5v16.1
				C11.6,18.3,11.4,18.6,11.1,18.6z M6.5,15.3c0.1,0,0.2,0,0.3,0.1l4,3.1c0.1,0.1,0.2,0.1,0.3,0.1c0.3,0,0.5-0.2,0.5-0.5V1.9
				c0-0.3-0.2-0.5-0.5-0.5H1.9c-0.3,0-0.5,0.2-0.5,0.5v16.1c0,0.3,0.2,0.5,0.5,0.5c0.1,0,0.2,0,0.3-0.1l4-3.1
				C6.3,15.3,6.4,15.3,6.5,15.3z"/>
		</g>
		<g id="wishlist_black" transform="translate(329)">
			<circle id="Ellipse_3" class="st3" cx="14.5" cy="14.5" r="14.5"/>
			<g id="Group_1">
				<path id="Path_15" class="st11" d="M8,6.8v15.3c0,0.3,0.1,0.5,0.2,0.7c0.1,0.2,0.2,0.4,0.4,0.6c0.7,0.6,1.7,0.7,2.5,0.1l3.4-2.5
					l3.4,2.5c0.3,0.2,0.7,0.4,1.2,0.4c0.5,0,1-0.2,1.3-0.5c0.2-0.2,0.3-0.4,0.4-0.6c0.1-0.2,0.2-0.5,0.2-0.7V6.8
					c0-1-0.9-1.9-1.9-1.8H9.9C8.9,5,8,5.8,8,6.8z M19.6,6.8v15.3c0,0.3-0.2,0.5-0.5,0.5c-0.1,0-0.2,0-0.3-0.1l-4-2.9
					c-0.2-0.1-0.4-0.1-0.6,0l-4,2.9c-0.1,0.1-0.2,0.1-0.3,0.1c-0.3,0-0.5-0.2-0.5-0.5V6.8c0-0.3,0.2-0.5,0.5-0.5h9.2
					C19.4,6.3,19.6,6.6,19.6,6.8L19.6,6.8z"/>
				<path id="Path_16" class="st10" d="M9.9,24c-0.5,0-1-0.2-1.3-0.5c-0.2-0.2-0.3-0.4-0.4-0.6C8.1,22.7,8,22.4,8,22.2V6.8
					C8,5.8,8.9,5,9.9,5h9.2c1,0,1.9,0.8,1.9,1.8v15.3c0,0.3-0.1,0.5-0.2,0.7c-0.1,0.2-0.3,0.4-0.4,0.6c-0.7,0.6-1.7,0.7-2.5,0.1
					l-3.4-2.5l-3.4,2.5C10.7,23.9,10.3,24,9.9,24z M9.9,5C8.9,5,8.1,5.8,8,6.8v15.3c0,0.3,0.1,0.5,0.2,0.7c0.1,0.2,0.2,0.4,0.4,0.6
					c0.7,0.6,1.7,0.7,2.4,0.1l3.4-2.5l0,0l3.4,2.5c0.7,0.5,1.8,0.5,2.4-0.1c0.2-0.2,0.3-0.4,0.4-0.6c0.1-0.2,0.2-0.5,0.2-0.7V6.8
					c0-1-0.9-1.8-1.9-1.8H9.9z M19.1,22.7c-0.1,0-0.2,0-0.3-0.1l-4-2.9c-0.2-0.1-0.4-0.1-0.6,0l-4,2.9c-0.1,0.1-0.2,0.1-0.3,0.1
					c-0.3,0-0.5-0.2-0.5-0.5V6.8c0-0.3,0.2-0.5,0.5-0.5h9.2c0.3,0,0.5,0.2,0.5,0.5c0,0,0,0,0,0v15.3C19.6,22.4,19.4,22.7,19.1,22.7
					L19.1,22.7z M14.5,19.5c0.1,0,0.2,0,0.3,0.1l4,2.9c0.1,0.1,0.2,0.1,0.3,0.1c0.3,0,0.5-0.2,0.5-0.5V6.8c0-0.3-0.2-0.5-0.5-0.5
					H9.9c-0.3,0-0.5,0.2-0.5,0.5v15.3c0,0.3,0.2,0.5,0.5,0.5c0.1,0,0.2,0,0.3-0.1l4-2.9C14.3,19.5,14.4,19.5,14.5,19.5z"/>
			</g>
		</g>
		<g id="mobile-white-2" transform="translate(255)">
			<path id="Path_6-2" class="st12" d="M0.8,4.4h15 M1,19.6h14.8 M1,1h14.8v22H1V1z"/>
			<path id="Path_7-2" class="st6" d="M12.2,16.9c-0.2,0-0.4-0.1-0.5-0.2l-1-1l-0.3,0.2c-0.1,0-0.1,0.1-0.2,0.1l0,0
				c-0.4,0.2-0.9,0.4-1.4,0.4c-0.2,0-0.4,0-0.6,0c-0.4,0-0.7,0-1.1-0.1C6,16,4.9,15.2,4.4,14c-0.2-0.4-0.3-0.7-0.4-1.1l0,0l0,0
				l0-0.1c-0.2-1.7,0.6-3.3,2-4.2c0.2-0.1,0.4-0.2,0.6-0.3C7,8.1,7.3,8,7.7,7.9C8.2,7.8,8.8,7.9,9.4,8h0c0,0,0.1,0,0.1,0h0
				c1.6,0.5,2.8,1.9,3,3.6c0.1,0.5,0,1.1-0.1,1.6c-0.1,0.4-0.3,0.8-0.5,1.2l-0.2,0.3l1,1c0.3,0.3,0.3,0.7,0,1
				C12.6,16.8,12.4,16.9,12.2,16.9 M8.3,9.1c-0.6,0-1.2,0.2-1.7,0.5l0,0C6.3,9.8,6,10.1,5.8,10.4c-0.2,0.3-0.4,0.7-0.5,1.1
				c-0.1,0.4-0.1,0.8-0.1,1.2c0.1,0.4,0.2,0.8,0.4,1.1c0.2,0.3,0.5,0.6,0.8,0.9c0.9,0.7,2.1,0.8,3.1,0.4c0.5-0.2,1-0.6,1.3-1
				c0.2-0.3,0.4-0.7,0.5-1.1c0.1-0.4,0.1-0.8,0.1-1.2c-0.1-0.8-0.6-1.5-1.2-2C9.6,9.3,9,9.1,8.3,9.1"/>
		</g>
		<g id="Group_96" transform="translate(423.5 -2.5)">
			<g id="back-with-bg" transform="translate(3 3)">
				<circle id="Oval" class="st13" cx="12.5" cy="12.5" r="12.5"/>
				<path id="Path" class="st11" d="M9.3,7.7c0,0.2-0.1,0.4-0.2,0.5l-3.1,3.2h15.9c0.4,0,0.7,0.3,0.7,0.7s-0.3,0.7-0.7,0.7l0,0H5.9
					L9,15.9c0.3,0.3,0.3,0.8,0,1.1c-0.3,0.3-0.7,0.3-1,0c0,0,0,0,0,0l-4.4-4.4c0,0-0.1-0.1-0.1-0.1c-0.1-0.2-0.2-0.5-0.1-0.7
					c0-0.1,0.1-0.2,0.1-0.2L8,7.1c0.3-0.3,0.7-0.3,1,0c0,0,0,0,0,0C9.2,7.3,9.3,7.5,9.3,7.7L9.3,7.7z"/>
			</g>
			<rect id="Rectangle_Copy_127" class="st14" width="30" height="30"/>
		</g>
		<g id="Group_2" transform="translate(117)">
			<g id="arrowBack" transform="translate(355.5 3.5)">
				<path id="Shape" class="st10" d="M0,8.6C0,8.4,0.1,8.2,0.3,8l7.3-7.7c0.3-0.4,0.9-0.4,1.3,0c0.4,0.4,0.4,0.9,0,1.3L3,7.7h16.1
					c0.5,0,0.9,0.4,0.9,0.9s-0.4,0.9-0.9,0.9l0,0H3l5.8,6.2c0.3,0.4,0.3,0.9,0,1.3c-0.4,0.3-0.9,0.3-1.3,0L0.3,9.3
					C0.1,9.1,0,8.9,0,8.6z"/>
			</g>
		</g>
		<path id="cancel" class="st10" d="M515.7,6.7c-0.3-0.3-0.8-0.3-1.1,0c-0.3,0.3-0.3,0.8,0,1.1l10.1,10.1c0.3,0.3,0.8,0.3,1.1,0
			c0.3-0.3,0.3-0.8,0-1.1c0,0,0,0,0,0L515.7,6.7z M514.6,16.8c-0.3,0.3-0.3,0.8,0,1.1c0.3,0.3,0.8,0.3,1.1,0l10.1-10.1
			c0.3-0.3,0.3-0.8,0-1.1c-0.3-0.3-0.8-0.3-1.1,0c0,0,0,0,0,0L514.6,16.8z"/>
		<g id="Feed" transform="translate(0 84)">
			<g id="noun_1092818" transform="translate(1)">
				<path id="Shape-2" class="st15" d="M1.7,24h6c0.5,0,0.9-0.4,0.9-0.8c0,0,0,0,0,0v-7.3h4.7v7.3c0,0.5,0.4,0.9,0.8,0.9
					c0,0,0,0,0,0h6c1,0,1.7-0.8,1.7-1.7V10.8c0-0.7-0.3-1.4-0.8-1.9l-8.6-8.2c-0.9-0.9-2.3-0.9-3.2,0L0.8,8.9C0.3,9.4,0,10.1,0,10.8
					v11.4C0,23.2,0.8,24,1.7,24z M1.7,10.8c0-0.3,0.1-0.5,0.3-0.7l8.6-8.2c0.2-0.2,0.5-0.2,0.7,0c0,0,0,0,0,0l8.6,8.2
					c0.2,0.2,0.3,0.4,0.3,0.7v11.4h-5.1V15c0-0.5-0.4-0.9-0.8-0.9c0,0,0,0,0,0H7.8c-0.5,0-0.9,0.4-0.9,0.8c0,0,0,0,0,0v7.3H1.7V10.8
					z"/>
			</g>
		</g>
		<g id="Categories" transform="translate(42 85)">
			<g id="Shape-3">
				<path id="Path_17" class="st16" d="M3.7,16c1.7,0,3,1.3,3,3s-1.3,3-3,3s-3-1.3-3-3S2,16,3.7,16z M26.2,20c0.3,0,0.6-0.1,0.8-0.3
					c0.4-0.3,0.4-0.9,0.1-1.3c0,0-0.1-0.1-0.1-0.1c-0.2-0.2-0.5-0.3-0.8-0.3H10.4c-0.3,0-0.6,0.1-0.8,0.3c-0.4,0.3-0.4,0.9-0.1,1.3
					c0,0,0.1,0.1,0.1,0.1c0.2,0.2,0.5,0.3,0.8,0.3L26.2,20z M3.7,18c0.6,0,1,0.4,1,1s-0.4,1-1,1s-1-0.4-1-1S3.1,18,3.7,18z M3.7,8
					c1.7,0,3,1.3,3,3s-1.3,3-3,3s-3-1.3-3-3S2,8,3.7,8z M26.2,12c0.3,0,0.6-0.1,0.8-0.3c0.4-0.3,0.4-0.9,0.1-1.3
					c0,0-0.1-0.1-0.1-0.1c-0.2-0.2-0.5-0.3-0.8-0.3H10.4c-0.3,0-0.6,0.1-0.8,0.3c-0.4,0.3-0.4,0.9-0.1,1.3c0,0,0.1,0.1,0.1,0.1
					c0.2,0.2,0.5,0.3,0.8,0.3L26.2,12z M3.7,10c0.6,0,1,0.4,1,1s-0.4,1-1,1s-1-0.4-1-1S3.1,10,3.7,10z M3.7,0c1.7,0,3,1.3,3,3
					s-1.3,3-3,3s-3-1.3-3-3S2,0,3.7,0z M26.2,4c0.3,0,0.6-0.1,0.8-0.3c0.4-0.3,0.4-0.9,0.1-1.3c0,0-0.1-0.1-0.1-0.1
					C26.8,2.1,26.5,2,26.2,2H10.4c-0.3,0-0.6,0.1-0.8,0.3C9.3,2.6,9.2,3.2,9.6,3.6c0,0,0.1,0.1,0.1,0.1C9.9,3.9,10.2,4,10.4,4H26.2z
					 M3.7,2c0.6,0,1,0.4,1,1s-0.4,1-1,1s-1-0.4-1-1S3.1,2,3.7,2z"/>
			</g>
		</g>
		<g id="Brands" transform="translate(89 84)">
			<g id="Shape-4">
				<path id="Path_18" class="st15" d="M11.3,0.1l-9,0.2c-1.1,0-1.9,0.9-1.9,1.9l-0.2,9c0,0.5,0.2,1.1,0.6,1.5l9.8,9.8
					c0.8,0.8,1.9,1.3,3.1,1.3c1.2,0,2.3-0.5,3.1-1.3l5.9-5.8c0.8-0.8,1.3-1.9,1.3-3.1c0-1.2-0.5-2.3-1.3-3.1l-9.8-9.9
					C12.4,0.3,11.8,0.1,11.3,0.1z M22,13.6c0,0.7-0.3,1.3-0.7,1.8l-5.8,5.8c-1,1-2.6,1-3.5,0l-9.8-9.8c0,0,0,0,0-0.1l0.2-9
					c0-0.1,0-0.1,0.1-0.1l9-0.2l0,0c0,0,0,0,0.1,0l9.8,9.8C21.7,12.3,22,13,22,13.6z"/>
				<path id="Path_19" class="st15" d="M5.8,5.8c-1.4,1.4-1.4,3.6,0,4.9c0.7,0.7,1.5,1,2.5,1c0.9,0,1.8-0.4,2.5-1
					c1.4-1.4,1.4-3.6,0-4.9S7.2,4.5,5.8,5.8z M9.4,9.4C8.8,10,7.8,10,7.2,9.4s-0.6-1.6,0-2.2c0.3-0.3,0.7-0.5,1.1-0.5
					c0.4,0,0.8,0.2,1.1,0.5C10,7.8,10,8.8,9.4,9.4z"/>
			</g>
		</g>
		<g id="My-Cliq" transform="translate(133 84)">
			<path id="Path_20" class="st17" d="M20,18.8c-1.2-1.9-3-3.3-5.2-4c2.1-1.6,2.4-4.5,0.9-6.6s-4.5-2.4-6.6-0.9S6.7,11.9,8.3,14
				c0.2,0.3,0.5,0.6,0.9,0.9c-2.1,0.7-4,2.1-5.2,4C0.2,14.4,0.7,7.7,5.2,4S16.3,0.7,20,5.1C23.4,9.1,23.4,14.9,20,18.8 M8.8,11.1
				c0-1.8,1.4-3.2,3.2-3.2s3.2,1.4,3.2,3.2c0,1.8-1.4,3.2-3.2,3.2C10.2,14.4,8.8,12.9,8.8,11.1 M12,22.5c-2.6,0-5.1-1-7-2.7
				c0,0,0,0,0.1-0.1c2.2-3.8,7.2-5.1,11-2.9c1.2,0.7,2.2,1.7,2.9,2.9c0,0,0,0,0.1,0.1C17.1,21.6,14.6,22.5,12,22.5 M12,0
				C5.4,0,0,5.4,0,12s5.4,12,12,12s12-5.4,12-12C24,5.4,18.6,0,12,0"/>
		</g>
		<g id="My-Bag" transform="translate(177 84)">
			<path id="Path_21" class="st17" d="M19.9,5.6c0-0.3-0.3-0.6-0.6-0.6h-3.2c-0.3-2.8-2.7-5-5.5-5.1C7.7,0,5.3,2.2,5,5.1H1.9
				C1.5,5,1.3,5.3,1.2,5.6L0,23.3C0,23.7,0.3,24,0.6,24h19.9c0.4,0,0.6-0.3,0.6-0.7c0,0,0,0,0,0L19.9,5.6z M10.6,1.3
				c2.2,0,4,1.6,4.3,3.8H6.3C6.6,2.9,8.4,1.3,10.6,1.3z M2.4,6.3H5v3.2c0,0.3,0.2,0.6,0.5,0.6c0,0,0,0,0.1,0c0.3,0,0.6-0.2,0.6-0.6
				c0,0,0,0,0-0.1V6.3h8.7v3.2c0,0.3,0.3,0.6,0.6,0.6s0.6-0.3,0.6-0.6V6.3h2.5l0.9,12h-18L2.4,6.3z M1.3,22.7l0.2-3.2h18.1l0.2,3.2
				H1.3z"/>
		</g>
		<g id="Feed-Copy" transform="translate(0 128)">
			<g id="noun_1092818-2" transform="translate(1)">
				<path id="Shape-5" class="st18" d="M1.7,24h6c0.5,0,0.9-0.4,0.9-0.8c0,0,0,0,0,0v-7.3h4.7v7.3c0,0.5,0.4,0.9,0.8,0.9
					c0,0,0,0,0,0h6c1,0,1.7-0.8,1.7-1.7V10.8c0-0.7-0.3-1.4-0.8-1.9l-8.6-8.2c-0.9-0.9-2.3-0.9-3.2,0L0.8,8.9C0.3,9.4,0,10.1,0,10.8
					v11.4C0,23.2,0.8,24,1.7,24z M1.7,10.8c0-0.3,0.1-0.5,0.3-0.7l8.6-8.2c0.2-0.2,0.5-0.2,0.7,0c0,0,0,0,0,0l8.6,8.2
					c0.2,0.2,0.3,0.4,0.3,0.7v11.4h-5.1V15c0-0.5-0.4-0.9-0.8-0.9c0,0,0,0,0,0H7.8c-0.5,0-0.9,0.4-0.9,0.8c0,0,0,0,0,0v7.3H1.7V10.8
					z"/>
			</g>
		</g>
		<g id="Categories-Copy" transform="translate(42 129)">
			<g id="Categories-2">
				<path id="Shape-6" class="st2" d="M3.7,16c1.7,0,3,1.3,3,3s-1.3,3-3,3s-3-1.3-3-3S2,16,3.7,16z M26.2,20c0.3,0,0.6-0.1,0.8-0.3
					c0.4-0.3,0.4-0.9,0.1-1.3c0,0-0.1-0.1-0.1-0.1c-0.2-0.2-0.5-0.3-0.8-0.3H10.4c-0.3,0-0.6,0.1-0.8,0.3c-0.4,0.3-0.4,0.9-0.1,1.3
					c0,0,0.1,0.1,0.1,0.1c0.2,0.2,0.5,0.3,0.8,0.3L26.2,20z M3.7,18c0.6,0,1,0.4,1,1s-0.4,1-1,1s-1-0.4-1-1S3.1,18,3.7,18z M3.7,8
					c1.7,0,3,1.3,3,3s-1.3,3-3,3s-3-1.3-3-3S2,8,3.7,8z M26.2,12c0.3,0,0.6-0.1,0.8-0.3c0.4-0.3,0.4-0.9,0.1-1.3
					c0,0-0.1-0.1-0.1-0.1c-0.2-0.2-0.5-0.3-0.8-0.3H10.4c-0.3,0-0.6,0.1-0.8,0.3c-0.4,0.3-0.4,0.9-0.1,1.3c0,0,0.1,0.1,0.1,0.1
					c0.2,0.2,0.5,0.3,0.8,0.3L26.2,12z M3.7,10c0.6,0,1,0.4,1,1s-0.4,1-1,1s-1-0.4-1-1S3.1,10,3.7,10z M3.7,0c1.7,0,3,1.3,3,3
					s-1.3,3-3,3s-3-1.3-3-3S2,0,3.7,0z M26.2,4c0.3,0,0.6-0.1,0.8-0.3c0.4-0.3,0.4-0.9,0.1-1.3c0,0-0.1-0.1-0.1-0.1
					C26.8,2.1,26.5,2,26.2,2H10.4c-0.3,0-0.6,0.1-0.8,0.3C9.3,2.6,9.2,3.2,9.6,3.6c0,0,0.1,0.1,0.1,0.1C9.9,3.9,10.2,4,10.4,4H26.2z
					 M3.7,2c0.6,0,1,0.4,1,1s-0.4,1-1,1s-1-0.4-1-1S3.1,2,3.7,2z"/>
			</g>
		</g>
		<g id="Brands-Copy" transform="translate(89 128)">
			<g id="Brands-2">
				<path id="Shape-7" class="st18" d="M11.3,0.1l-9,0.2c-1.1,0-1.9,0.9-1.9,1.9l-0.2,9c0,0.5,0.2,1.1,0.6,1.5l9.8,9.8
					c0.8,0.8,1.9,1.3,3.1,1.3c1.2,0,2.3-0.5,3.1-1.3l5.9-5.8c0.8-0.8,1.3-1.9,1.3-3.1c0-1.2-0.5-2.3-1.3-3.1l-9.8-9.9
					C12.4,0.3,11.8,0.1,11.3,0.1z M22,13.6c0,0.7-0.3,1.3-0.7,1.8l-5.8,5.8c-1,1-2.6,1-3.5,0l-9.8-9.8c0,0,0,0,0-0.1l0.2-9
					c0-0.1,0-0.1,0.1-0.1l9-0.2l0,0c0,0,0,0,0.1,0l9.8,9.8C21.7,12.3,22,13,22,13.6z"/>
				<path id="Shape-8" class="st18" d="M5.8,5.8c-1.4,1.4-1.4,3.6,0,4.9c0.7,0.7,1.5,1,2.5,1c0.9,0,1.8-0.4,2.5-1
					c1.4-1.4,1.4-3.6,0-4.9S7.2,4.5,5.8,5.8z M9.4,9.4C8.8,10,7.8,10,7.2,9.4s-0.6-1.6,0-2.2c0.3-0.3,0.7-0.5,1.1-0.5
					c0.4,0,0.8,0.2,1.1,0.5C10,7.8,10,8.8,9.4,9.4z"/>
			</g>
		</g>
		<g id="My-Cliq-Copy" transform="translate(133 128)">
			<path id="My-Cliq-2" class="st19" d="M20,18.8c-1.2-1.9-3-3.3-5.2-4c2.1-1.6,2.4-4.5,0.9-6.6s-4.5-2.4-6.6-0.9S6.7,11.9,8.3,14
				c0.2,0.3,0.5,0.6,0.9,0.9c-2.1,0.7-4,2.1-5.2,4C0.2,14.4,0.7,7.7,5.2,4S16.3,0.7,20,5.1C23.4,9.1,23.4,14.9,20,18.8 M8.8,11.1
				c0-1.8,1.4-3.2,3.2-3.2s3.2,1.4,3.2,3.2c0,1.8-1.4,3.2-3.2,3.2C10.2,14.4,8.8,12.9,8.8,11.1 M12,22.5c-2.6,0-5.1-1-7-2.7
				c0,0,0,0,0.1-0.1c2.2-3.8,7.2-5.1,11-2.9c1.2,0.7,2.2,1.7,2.9,2.9c0,0,0,0,0.1,0.1C17.1,21.6,14.6,22.5,12,22.5 M12,0
				C5.4,0,0,5.4,0,12s5.4,12,12,12s12-5.4,12-12C24,5.4,18.6,0,12,0"/>
		</g>
		<g id="My-Bag-Copy" transform="translate(177 128)">
			<path id="My-Bag-2" class="st19" d="M19.9,5.6c0-0.3-0.3-0.6-0.6-0.6h-3.2c-0.3-2.8-2.7-5-5.5-5.1C7.7,0,5.3,2.2,5,5.1H1.9
				C1.5,5,1.3,5.3,1.2,5.6L0,23.3C0,23.7,0.3,24,0.6,24h19.9c0.4,0,0.6-0.3,0.6-0.7c0,0,0,0,0,0L19.9,5.6z M10.6,1.3
				c2.2,0,4,1.6,4.3,3.8H6.3C6.6,2.9,8.4,1.3,10.6,1.3z M2.4,6.3H5v3.2c0,0.3,0.2,0.6,0.5,0.6c0,0,0,0,0.1,0c0.3,0,0.6-0.2,0.6-0.6
				c0,0,0,0,0-0.1V6.3h8.7v3.2c0,0.3,0.3,0.6,0.6,0.6s0.6-0.3,0.6-0.6V6.3h2.5l0.9,12h-18L2.4,6.3z M1.3,22.7l0.2-3.2h18.1l0.2,3.2
				H1.3z"/>
		</g>
		<g id="Group" transform="translate(216 86)">
			<g id="company" transform="translate(3.001)">
				<path id="Path-2" d="M5.3,19.5c-2.9,0-5.3-5-5.3-7.5c0-2.8,2.2-5,4.9-5c0.1,0,0.1,0,0.2,0c0.7,0,1.3,0.2,1.9,0.4
					c0.4,0.1,0.7,0.2,1.1,0.3c0.3,0,0.5-0.1,0.8-0.2c0.8-0.3,1.6-0.5,2.4-0.5h0c1.6,0,3,0.6,4.1,1.7L15.7,9l-0.4,0.3
					c-1,0.5-1.6,1.4-1.7,2.5c0,1.2,0.8,2.2,1.9,2.6c0.3,0.1,0.5,0.3,0.5,0.6c0,0.2-1.9,4.5-4.7,4.5c-0.5,0-1.1-0.1-1.6-0.3
					c-0.4-0.2-0.9-0.3-1.4-0.3c-0.4,0-0.8,0.1-1.1,0.3C6.6,19.4,6,19.5,5.3,19.5L5.3,19.5z"/>
				<path id="Path-3" d="M12.3,0c0.1,4-2.7,6.8-5.6,6.6C6.3,3.4,9.6,0,12.3,0z"/>
			</g>
		</g>
		<g id="android" transform="translate(255 86)">
			<path id="Path-4" d="M12.2,7.6H3.8c-0.2,0-0.4,0.2-0.4,0.4c0,0,0,0,0,0v6.7c0,1,0.7,1.9,1.7,2.1V19c0,0.7,0.6,1.3,1.3,1.3
				c0.7,0,1.3-0.6,1.3-1.3l0,0v-2.1h0.8V19c0,0.7,0.6,1.3,1.3,1.3c0.7,0,1.3-0.6,1.3-1.3v-2.1c1-0.2,1.7-1.1,1.7-2.1V8.1
				C12.7,7.8,12.5,7.6,12.2,7.6z"/>
			<path id="Shape-9" d="M10.2,2.2l0.7-1.6c0.1-0.2,0-0.5-0.2-0.5c0,0,0,0,0,0c-0.2-0.1-0.5,0-0.6,0.2L9.5,1.9
				c-0.9-0.3-1.9-0.3-2.9,0L5.9,0.3C5.8,0,5.5-0.1,5.3,0c0,0,0,0,0,0C5.1,0.1,5,0.4,5.1,0.6c0,0,0,0,0,0l0.7,1.6
				C4.3,3,3.4,4.6,3.4,6.3c0,0.2,0.2,0.4,0.4,0.4c0,0,0,0,0,0h8.5c0.2,0,0.4-0.2,0.4-0.4c0,0,0,0,0,0C12.7,4.6,11.7,3,10.2,2.2z
				 M6.3,5C6.1,5,5.9,4.8,5.9,4.6s0.2-0.4,0.4-0.4c0.2,0,0.4,0.2,0.4,0.4C6.8,4.8,6.6,5,6.3,5C6.3,5,6.3,5,6.3,5z M9.7,5
				C9.5,5,9.3,4.8,9.3,4.6c0-0.2,0.2-0.4,0.4-0.4c0.2,0,0.4,0.2,0.4,0.4C10.1,4.8,9.9,5,9.7,5C9.7,5,9.7,5,9.7,5z"/>
			<path id="Path-5" d="M14.8,7.6c-0.7,0-1.3,0.6-1.3,1.3V13c0,0.7,0.6,1.3,1.3,1.3c0.7,0,1.3-0.6,1.3-1.3V8.9
				C16,8.2,15.5,7.6,14.8,7.6z"/>
			<path id="Path-6" d="M1.3,7.6C0.6,7.6,0,8.2,0,8.9V13c0,0.7,0.6,1.3,1.3,1.3c0.7,0,1.3-0.6,1.3-1.3V8.9C2.5,8.2,2,7.6,1.3,7.6z"
				/>
		</g>
		<g id="_001-youtube" transform="translate(411 86)">
			<path id="Path-7" d="M7.8,7.1v5.5l5-2.7L7.8,7.1z"/>
			<path id="Shape-10" d="M15,0H5C2.2,0,0,2.3,0,5v10c0,2.8,2.2,5,5,5h10c2.8,0,5-2.2,5-5V5C20,2.2,17.8,0,15,0z M16.2,10.5
				c0,1-0.1,2.1-0.1,2.1c-0.1,0.5-0.2,0.9-0.5,1.3c-0.3,0.3-0.8,0.5-1.2,0.6c-1.7,0.1-4.4,0.1-4.4,0.1s-3.3,0-4.3-0.1
				c-0.5,0-1-0.2-1.4-0.6c-0.3-0.4-0.4-0.8-0.5-1.3c0,0-0.1-1.1-0.1-2.1v-1c0-1,0.1-2.1,0.1-2.1C4,6.9,4.1,6.5,4.4,6.1
				c0.3-0.3,0.8-0.6,1.2-0.6C7.4,5.4,10,5.4,10,5.4s2.6,0,4.4,0.1c0.5,0,0.9,0.2,1.3,0.6c0.3,0.4,0.4,0.8,0.5,1.3
				c0,0,0.1,1.1,0.1,2.1L16.2,10.5z"/>
		</g>
		<g id="_019-linkedin" transform="translate(451 86)">
			<path id="Shape-11" d="M15,0H5C2.2,0,0,2.3,0,5v10c0,2.8,2.3,5,5,5h10c2.8,0,5-2.2,5-5V5C20,2.3,17.7,0,15,0z M6.7,16.2H3.8V7.9
				h2.9V16.2z M5.2,6.7C4.4,6.7,3.8,6,3.8,5.2c0-0.8,0.7-1.5,1.5-1.5s1.5,0.7,1.5,1.5c0,0,0,0,0,0C6.7,6,6,6.7,5.2,6.7z M16.2,16.2
				h-2.4v-4c0-1-0.1-2.2-1.4-2.2c-1.3,0-1.6,1-1.6,2.1v4.1H8.4V7.9h2.2v1.1h0.1c0.5-0.8,1.5-1.2,2.4-1.1c2.6,0,3.1,1.5,3.1,3.7V16.2
				z"/>
		</g>
		<g id="_023-facebook" transform="translate(291 86)">
			<path id="Shape-12" d="M15,0H5C2.2,0,0,2.3,0,5v10c0,2.8,2.2,5,5,5h10c2.8,0,5-2.2,5-5V5C20,2.2,17.8,0,15,0z M12.7,10h-1.9v6.2
				H8.4V10H7.1V7.5h1.1V6.4C8.2,5,9.2,3.9,10.5,3.8c0.1,0,0.2,0,0.4,0h2v2.1h-1.4C11.3,5.9,11,6,11,6.5v1h1.9L12.7,10z"/>
		</g>
		<g id="_007-twitter-1" transform="translate(331 86)">
			<path id="Shape-13" d="M15,0H5C2.2,0,0,2.3,0,5v10c0,2.8,2.3,5,5,5h10c2.8,0,5-2.2,5-5V5C20,2.3,17.7,0,15,0z M15,7.5v0.3
				c0,4-3.2,7.2-7.2,7.2c0,0-0.1,0-0.1,0c-1.4,0-2.7-0.4-3.9-1.1c0.2,0,0.4,0,0.6,0c1.1,0,2.3-0.4,3.2-1.1c-1.1,0-2.1-0.7-2.4-1.7
				c0.2,0,0.3,0,0.5,0c0.2,0,0.5,0,0.7-0.1c-1.2-0.2-2-1.3-2-2.5v0C4.6,8.7,5,8.8,5.4,8.9C4.3,8.1,3.9,6.6,4.6,5.5
				C5.9,7.1,7.9,8,9.9,8.1c0-0.2-0.1-0.4-0.1-0.6C9.8,6.2,11,5,12.4,5c0,0,0,0,0,0c0.7,0,1.4,0.3,1.9,0.8c0.6-0.1,1.1-0.3,1.6-0.6
				c-0.2,0.6-0.6,1.1-1.1,1.4c0.5-0.1,1-0.2,1.5-0.4C15.9,6.7,15.5,7.1,15,7.5z"/>
		</g>
		<g id="_020-instagram" transform="translate(371 86)">
			<path id="Path-8" d="M11.8,8.7c-0.7-1-2-1.2-3-0.5C8.5,8.4,8.4,8.5,8.2,8.7C8,9.1,7.8,9.6,7.8,10c0,1.2,1,2.2,2.2,2.2
				s2.2-1,2.2-2.2l0,0C12.2,9.6,12,9.1,11.8,8.7z"/>
			<path id="Path-9" d="M13.2,8.8c0.2,0.4,0.3,0.8,0.3,1.3c0,1.9-1.5,3.4-3.4,3.4c-1.9,0-3.4-1.5-3.4-3.4c0-0.4,0.1-0.9,0.3-1.3H4.9
				v5.1c0,0.7,0.6,1.2,1.3,1.3h7.7c0.7,0,1.2-0.6,1.3-1.3V8.8H13.2z"/>
			<path id="Path-10" d="M14.5,5.2h-1.8v2.1h2.1V5.2L14.5,5.2z"/>
			<path id="Shape-14" d="M15,0H5C2.2,0,0,2.3,0,5v10c0,2.8,2.3,5,5,5h10c2.8,0,5-2.2,5-5V5C20,2.3,17.7,0,15,0z M16.2,8.7L16.2,8.7
				v5.1c0,1.3-1,2.3-2.3,2.4c0,0,0,0-0.1,0H6.2c-1.3,0-2.3-1-2.4-2.3c0,0,0,0,0-0.1V6.2c0-1.3,1-2.3,2.3-2.4c0,0,0,0,0.1,0h7.6
				c1.3,0,2.3,1,2.4,2.3c0,0,0,0,0,0.1L16.2,8.7z"/>
		</g>
		<g id="wishlist_unfilled_new" transform="translate(547 -0.5)">
			<path id="Path-11" class="st14" d="M6.9,11.9l-6,6V2.4c0.1-0.9,1-1.6,1.9-1.5H11c0.9-0.1,1.8,0.6,1.9,1.5v15.5L6.9,11.9z"/>
		</g>
		<g id="emi-tag" transform="translate(580.5 0.5)">
			<path id="Shape-15" class="st20" d="M5.5,10L5.5,10C5.2,10,5,9.9,4.8,9.7L0.3,5.2C0.1,5,0,4.8,0,4.5V1c0-0.6,0.4-1,1-1h3.5
				C4.8,0,5,0.1,5.2,0.3l4.5,4.5C9.9,5,10,5.2,10,5.5C10,5.8,9.9,6,9.7,6.2L6.2,9.7C6,9.9,5.8,10,5.5,10z M1,0.1
				C0.5,0.1,0.1,0.5,0.1,1c0,0,0,0,0,0v3.5c0,0.2,0.1,0.5,0.3,0.6l4.5,4.5C5,9.8,5.3,9.9,5.5,9.9h0c0.2,0,0.4-0.1,0.6-0.3l3.5-3.5
				C9.8,6,9.9,5.7,9.9,5.5c0-0.2-0.1-0.5-0.3-0.6L5.1,0.4C5,0.2,4.7,0.1,4.5,0.1H1z"/>
			<path id="Shape-16" class="st20" d="M2.8,3.5C2.3,3.5,2,3.2,2,2.8S2.3,2,2.8,2c0.4,0,0.8,0.3,0.8,0.8C3.5,3.2,3.2,3.5,2.8,3.5z
				 M2.8,3.4L2.8,3.4c0.4,0,0.6-0.3,0.6-0.6c0,0,0,0,0,0c0-0.3-0.3-0.6-0.6-0.6c0,0,0,0,0,0h0c-0.2,0-0.3,0.1-0.4,0.2
				C2.1,2.6,2.1,3,2.3,3.2C2.4,3.3,2.6,3.4,2.8,3.4L2.8,3.4z"/>
		</g>
		<g id="offerplp_bg" transform="translate(611)">
			
				<linearGradient id="Path_22_1_" gradientUnits="userSpaceOnUse" x1="-492.9193" y1="629.2143" x2="-493.9193" y2="630.2143" gradientTransform="matrix(62 0 0 -14 30623 8823)">
				<stop  offset="0" style="stop-color:#8581D8;stop-opacity:0.902"/>
				<stop  offset="1" style="stop-color:#E71385;stop-opacity:0.902"/>
			</linearGradient>
			<path id="Path_22" class="st21" d="M0,0h62l-3.8,6.5c-0.2,0.3-0.2,0.7,0,1L62,14H0V0z"/>
		</g>
		<path id="grid" class="st15" d="M741,0h-7.3c-0.4,0-0.7,0.3-0.7,0.7V8c0,0.4,0.3,0.7,0.7,0.7h7.3c0.4,0,0.7-0.3,0.7-0.7V0.7
			C741.7,0.3,741.4,0,741,0z M740.3,7.3h-5.9V1.4h5.9V7.3z M752.3,0H745c-0.4,0-0.7,0.3-0.7,0.7V8c0,0.4,0.3,0.7,0.7,0.7h7.3
			c0.4,0,0.7-0.3,0.7-0.7V0.7C753,0.3,752.7,0,752.3,0z M751.6,7.3h-5.9V1.4h5.9L751.6,7.3z M741,11.3h-7.3c-0.4,0-0.7,0.3-0.7,0.7
			c0,0,0,0,0,0v7.3c0,0.4,0.3,0.7,0.7,0.7c0,0,0,0,0,0h7.3c0.4,0,0.7-0.3,0.7-0.7V12C741.7,11.6,741.4,11.3,741,11.3L741,11.3z
			 M740.3,18.6h-5.9v-5.9h5.9L740.3,18.6z M752.3,11.3H745c-0.4,0-0.7,0.3-0.7,0.7v7.3c0,0.4,0.3,0.7,0.7,0.7h7.3
			c0.4,0,0.7-0.3,0.7-0.7V12C753,11.6,752.7,11.3,752.3,11.3C752.3,11.3,752.3,11.3,752.3,11.3z M751.6,18.6h-5.9v-5.9h5.9
			L751.6,18.6z"/>
		<path id="list" class="st15" d="M693,18.3h6.7v-6.7H693V18.3z M694.3,13h4v4h-4V13z M701,6.3h12V5h-12V6.3z M693,7.7h6.7V1H693
			V7.7z M694.3,2.3h4v4h-4V2.3z M701,10.3h12V9h-12V10.3z M701,18.3h12V17h-12V18.3z M701,14.3h12V13h-12V14.3z M701,1v1.3h12V1
			L701,1z"/>
		<g id="Asset_6" transform="translate(773.5 0.5)">
			<rect id="Rectangle-2" x="0.6" y="5" class="st22" width="19.8" height="19.8"/>
			<rect id="Rectangle-3" x="5" y="0.6" class="st22" width="19.8" height="19.8"/>
		</g>
		<path id="star" class="st10" d="M846.9,10c0.1,0,0.2-0.1,0.3-0.2c0.1-0.1,0.1-0.2,0.1-0.3l-0.5-3.1l2.1-2.2
			c0.1-0.1,0.1-0.3,0.1-0.4c0-0.1-0.2-0.2-0.3-0.3l-3-0.5l-1.4-2.8C844.3,0,844-0.1,843.9,0c-0.1,0-0.2,0.1-0.2,0.2L842.3,3l-3,0.5
			c-0.1,0-0.3,0.1-0.3,0.3c0,0.1,0,0.3,0.1,0.4l2.1,2.2l-0.5,3.1c0,0.1,0,0.3,0.2,0.4c0.1,0.1,0.3,0.1,0.4,0l2.7-1.5l2.7,1.4
			C846.7,10,846.8,10,846.9,10L846.9,10z"/>
		<g id="filter" transform="translate(-0.017 43.985)">
			<path id="Path_23" class="st23" d="M21.3,2.6h-7c-0.4-1.8-2.2-2.9-3.9-2.5C9,0.4,8,1.4,7.8,2.6h-7C0.3,2.6,0,3,0,3.4
				c0,0.4,0.3,0.8,0.8,0.8h7c0.4,1.8,2.2,2.9,3.9,2.5C13,6.4,14,5.4,14.3,4.2h7c0.4,0,0.8-0.3,0.8-0.8C22,3,21.7,2.6,21.3,2.6z
				 M11,5.3c-1,0-1.9-0.8-1.9-1.8S9.9,1.5,11,1.5c1,0,1.8,0.8,1.9,1.8c0,0,0,0.1,0,0.1c0,0,0,0.1,0,0.1C12.8,4.5,12,5.3,11,5.3z"/>
			<path id="Path_24" class="st23" d="M21.3,17.9h-1.6c-0.4-1.8-2.2-2.9-3.9-2.5c-1.3,0.3-2.3,1.3-2.5,2.5H0.8
				c-0.4,0-0.8,0.3-0.8,0.8c0,0.4,0.3,0.8,0.8,0.8h12.5c0.4,1.8,2.2,2.9,3.9,2.5c1.3-0.3,2.3-1.3,2.5-2.5h1.6c0.4,0,0.8-0.3,0.8-0.8
				C22,18.2,21.7,17.9,21.3,17.9z M16.5,20.5c-1,0-1.9-0.8-1.9-1.8s0.8-1.9,1.8-1.9c1,0,1.9,0.8,1.9,1.8c0,0,0,0,0,0
				C18.3,19.7,17.5,20.5,16.5,20.5L16.5,20.5z"/>
			<path id="Path_25" class="st23" d="M21.3,10.3H8.8C8.4,8.5,6.7,7.3,4.9,7.7C3.6,8,2.6,9,2.3,10.3H0.8C0.3,10.3,0,10.6,0,11
				c0,0.4,0.3,0.8,0.8,0.8h1.6c0.4,1.8,2.2,2.9,3.9,2.5C7.5,14,8.5,13,8.8,11.8h12.5c0.4,0,0.8-0.3,0.8-0.8
				C22,10.6,21.7,10.3,21.3,10.3z M5.6,12.9c-1,0-1.9-0.8-1.9-1.8s0.8-1.9,1.8-1.9c1,0,1.9,0.8,1.9,1.8c0,0,0,0,0,0
				C7.4,12,6.6,12.9,5.6,12.9z"/>
		</g>
		<path id="sort" class="st24" d="M45.8,44c-0.4,0-0.8,0.3-0.8,0.8c0,0,0,0,0,0v10.5L43.5,54c-0.3-0.3-0.8-0.2-1.1,0.1c0,0,0,0,0,0
			c-0.3,0.3-0.2,0.8,0.1,1.1l1.2,1l0,0l0.8,0.7l0.6,0.5l0,0l0.6,0.5l0,0l0.6-0.5l0.3-0.3l1.2-1l0,0l1.2-1c0.3-0.3,0.4-0.8,0.1-1.1
			c-0.3-0.3-0.7-0.4-1.1-0.1c0,0,0,0,0,0l-1.5,1.3V44.8C46.6,44.3,46.2,44,45.8,44C45.8,44,45.8,44,45.8,44L45.8,44z M51.5,44.2
			c-0.5,0-0.9,0.4-0.9,0.9c0,0.5,0.4,0.9,0.9,0.9h11.9c0.5,0,0.9-0.4,0.9-0.9c0-0.5-0.4-0.9-0.9-0.9H51.5z M51.5,48.1
			c-0.5,0-0.9,0.4-0.9,0.9c0,0.5,0.4,0.9,0.9,0.9h9.3c0.5,0,0.9-0.4,0.9-0.9c0-0.5-0.4-0.9-0.9-0.9H51.5z M51.5,52.1
			c-0.5,0-0.9,0.4-0.9,0.9c0,0.5,0.4,0.9,0.9,0.9h6.7c0.5,0,0.9-0.4,0.9-0.9c0-0.5-0.4-0.9-0.9-0.9l0,0H51.5z M51.5,56.1
			c-0.5,0-0.9,0.4-0.9,0.9s0.4,0.9,0.9,0.9h4.1c0.5,0,0.9-0.4,0.9-0.9s-0.4-0.9-0.9-0.9H51.5z"/>
		<g id="Asset_12" transform="translate(86.5 45.5)">
			<path id="Path-12" class="st25" d="M2.5,0v10.8"/>
			<path id="Path-13" class="st26" d="M5,2.9L2.5,0L0,2.9"/>
		</g>
		<g id="Asset_11" transform="translate(110.5 45.5)">
			<path id="Path-14" class="st25" d="M2.5,10.8V0"/>
			<path id="Path-15" class="st26" d="M5,8.1l-2.5,2.8L0,8.1"/>
		</g>
		<g id="Share" transform="translate(137.5 45.5)">
			<path id="Path-16" class="st27" d="M15.6,3.6L3.8,11.2l11.8,7.6"/>
			<circle id="Oval-2" class="st28" cx="3.8" cy="11.2" r="3.6"/>
			<circle id="Oval-Copy" class="st28" cx="15.6" cy="3.6" r="3.6"/>
			<circle id="Oval-Copy-2" class="st28" cx="15.6" cy="18.8" r="3.6"/>
		</g>
		<g id="voucherImage.41eed78b" transform="translate(177 43.979)">
			<path id="Path_26" class="st29" d="M29,0H6.8v0.5C6.8,0.8,6.6,1,6.3,1C6,1,5.8,0.8,5.8,0.5V0H1C0.4,0,0,0.5,0,1c0,0,0,0,0,0v4.3
				c0,0.2,0.1,0.5,0.3,0.6c1,0.6,1.6,1.7,1.6,2.9c0,1.2-0.6,2.3-1.6,2.9C0.1,11.7,0,12,0,12.2v4.3c0,0.5,0.4,1,1,1c0,0,0,0,0,0h4.8
				V17c0-0.3,0.2-0.5,0.5-0.5c0.3,0,0.5,0.2,0.5,0.5c0,0,0,0,0,0v0.5H29c0.5,0,1-0.4,1-1V1C30,0.5,29.6,0,29,0C29,0,29,0,29,0z
				 M6.8,15c0,0.3-0.2,0.5-0.5,0.5S5.8,15.3,5.8,15v-1c0-0.3,0.2-0.5,0.5-0.5s0.5,0.2,0.5,0.5V15z M6.8,12.1c0,0.3-0.2,0.5-0.5,0.5
				s-0.5-0.2-0.5-0.5v-1c0-0.3,0.2-0.5,0.5-0.5s0.5,0.2,0.5,0.5V12.1z M6.8,9.2c0,0.3-0.2,0.5-0.5,0.5S5.8,9.5,5.8,9.2v-1
				C5.8,8,6,7.7,6.3,7.7S6.8,8,6.8,8.2V9.2z M6.8,6.3c0,0.3-0.2,0.5-0.5,0.5S5.8,6.6,5.8,6.3v-1c0-0.3,0.2-0.5,0.5-0.5
				s0.5,0.2,0.5,0.5V6.3z M6.8,3.4c0,0.3-0.2,0.5-0.5,0.5S5.8,3.7,5.8,3.4v-1c0-0.3,0.2-0.5,0.5-0.5s0.5,0.2,0.5,0.5V3.4z"/>
			<path id="Path_27" class="st30" d="M28.5,16.5H8.2c-0.3,0-0.5-0.2-0.5-0.5l0,0V1.5C7.7,1.2,8,1,8.2,1h20.3C28.8,1,29,1.2,29,1.5
				V16C29,16.3,28.8,16.5,28.5,16.5z"/>
			<path id="Path_28" class="st1" d="M18,12.1l-2.5,1.6c-0.3,0.2-0.8,0.1-1-0.2c-0.1-0.2-0.1-0.4-0.1-0.6l0.7-2.9l-2.3-1.9
				c-0.3-0.3-0.3-0.7-0.1-1c0.1-0.2,0.3-0.2,0.5-0.3l3-0.2l1.1-2.7c0.1-0.4,0.6-0.6,0.9-0.4c0.2,0.1,0.3,0.2,0.4,0.4l1.1,2.7l3,0.2
				c0.4,0,0.7,0.4,0.7,0.8c0,0.2-0.1,0.4-0.3,0.5L20.9,10l0.7,2.9c0.1,0.4-0.1,0.8-0.5,0.9c-0.2,0-0.4,0-0.6-0.1L18,12.1z"/>
			<path id="Path_29" class="st31" d="M21.3,11.6c-3.1-0.2-5.8-2.1-7-4.9l-1,0.1c-0.4,0-0.7,0.4-0.7,0.8c0,0.2,0.1,0.4,0.3,0.5
				l2.3,1.9l-0.7,2.9c-0.1,0.4,0.1,0.8,0.5,0.9c0.2,0,0.4,0,0.6-0.1l2.5-1.6l2.5,1.6c0.3,0.2,0.8,0.1,1-0.2c0.1-0.2,0.1-0.4,0.1-0.6
				L21.3,11.6z"/>
		</g>
		<g id="size_guide" transform="translate(227 44)">
			<path id="Path_30" class="st11" d="M11.4,1.1c-6.1,0-10.3,2-10.3,3.8s4.2,3.8,10.3,3.8s10.3-2,10.3-3.8S17.5,1.1,11.4,1.1
				 M11.4,9.8C5,9.8,0,7.6,0,4.9S5,0,11.4,0s11.4,2.1,11.4,4.9S17.8,9.8,11.4,9.8"/>
			<path id="Path_31" class="st11" d="M1.1,7v5.5c0,1.8,4.2,3.8,10.3,3.8s10.3-2,10.3-3.8V7C19.9,8.6,16,9.8,11.4,9.8S2.9,8.6,1.1,7
				 M11.4,17.4C5,17.4,0,15.2,0,12.5V4.9h1.1c0,1.8,4.2,3.8,10.3,3.8s10.3-2,10.3-3.8h1.1v7.6C22.8,15.2,17.8,17.4,11.4,17.4"/>
			<path id="Path_32" class="st11" d="M31.2,16.3h-3.5c-3.3,0-6-1.7-6-3.8h1.1c0,1.5,2.2,2.7,4.9,2.7h3.3v-6h-3.3
				c-3.3,0-6-1.7-6-3.8h1.1c0,1.5,2.2,2.7,4.9,2.7h3.5c0.4,0,0.8,0.4,0.8,0.8v6.5C32,15.9,31.6,16.3,31.2,16.3"/>
			<path id="Path_33" class="st11" d="M11.4,3.8c-2,0-3.3,0.7-3.3,1.1S9.4,6,11.4,6s3.3-0.7,3.3-1.1S13.4,3.8,11.4,3.8 M11.4,7.1
				c-2.2,0-4.3-0.7-4.3-2.2s2.2-2.2,4.3-2.2s4.3,0.7,4.3,2.2S13.5,7.1,11.4,7.1"/>
			<path id="Path_34" class="st11" d="M3.3,10.8c-0.3,0-0.5-0.2-0.5-0.5V8.1c0-0.3,0.2-0.5,0.5-0.5s0.5,0.2,0.5,0.5l0,0v2.2
				C3.8,10.6,3.6,10.8,3.3,10.8"/>
			<path id="Path_35" class="st11" d="M6,10.8c-0.3,0-0.5-0.2-0.5-0.5V8.7c0-0.3,0.2-0.5,0.5-0.5s0.5,0.2,0.5,0.5v1.6
				C6.5,10.6,6.3,10.8,6,10.8"/>
			<path id="Path_36" class="st11" d="M8.7,11.9c-0.3,0-0.5-0.2-0.5-0.5V9.2c0-0.3,0.2-0.5,0.5-0.5c0.3,0,0.5,0.2,0.5,0.5v2.2
				C9.2,11.7,9,11.9,8.7,11.9"/>
			<path id="Path_37" class="st11" d="M11.4,11.4c-0.3,0-0.5-0.2-0.5-0.5V9.2c0-0.3,0.2-0.5,0.5-0.5c0.3,0,0.5,0.2,0.5,0.5v1.6
				C11.9,11.1,11.7,11.4,11.4,11.4"/>
			<path id="Path_38" class="st11" d="M11.4,17.4c-0.3,0-0.5-0.2-0.5-0.5v-1.6c0-0.3,0.2-0.5,0.5-0.5c0.3,0,0.5,0.2,0.5,0.5l0,0v1.6
				C11.9,17.1,11.7,17.4,11.4,17.4"/>
			<path id="Path_39" class="st11" d="M14.1,16.8c-0.3,0-0.5-0.2-0.5-0.5v-1.6c0-0.3,0.2-0.5,0.5-0.5c0.3,0,0.5,0.2,0.5,0.5v1.6
				C14.6,16.6,14.4,16.8,14.1,16.8"/>
			<path id="Path_40" class="st11" d="M16.8,16.3c-0.3,0-0.5-0.2-0.5-0.5v-1.6c0-0.3,0.2-0.5,0.5-0.5s0.5,0.2,0.5,0.5v1.6
				C17.4,16,17.1,16.3,16.8,16.3L16.8,16.3"/>
			<path id="Path_41" class="st11" d="M19.5,15.7c-0.3,0-0.5-0.2-0.5-0.5v-1.6c0-0.3,0.2-0.5,0.5-0.5c0.3,0,0.5,0.2,0.5,0.5v1.6
				C20.1,15.5,19.8,15.7,19.5,15.7"/>
			<path id="Path_42" class="st11" d="M14.1,11.9c-0.3,0-0.5-0.2-0.5-0.5V9.2c0-0.3,0.2-0.5,0.5-0.5c0.3,0,0.5,0.2,0.5,0.5v2.2
				C14.6,11.7,14.4,11.9,14.1,11.9"/>
			<path id="Path_43" class="st11" d="M16.8,10.8c-0.3,0-0.5-0.2-0.5-0.5V8.7c0-0.3,0.2-0.5,0.5-0.5s0.5,0.2,0.5,0.5v1.6
				C17.4,10.6,17.1,10.8,16.8,10.8"/>
			<path id="Path_44" class="st11" d="M24.4,10.8c-0.3,0-0.5-0.2-0.5-0.5V8.1c0-0.3,0.2-0.5,0.5-0.5c0.3,0,0.5,0.2,0.5,0.5v2.2
				C25,10.6,24.7,10.8,24.4,10.8"/>
			<path id="Path_45" class="st11" d="M25.5,15.7c-0.3,0-0.5-0.2-0.5-0.5V13c0-0.3,0.2-0.5,0.5-0.5S26,12.7,26,13v2.2
				C26,15.5,25.8,15.7,25.5,15.7"/>
			<path id="Path_46" class="st11" d="M26.6,10.8c-0.3,0-0.5-0.2-0.5-0.5V8.7c0-0.3,0.2-0.5,0.5-0.5s0.5,0.2,0.5,0.5v1.6
				C27.1,10.6,26.9,10.8,26.6,10.8"/>
			<path id="Path_47" class="st11" d="M19.5,10.8c-0.3,0-0.5-0.2-0.5-0.5V8.1c0-0.3,0.2-0.5,0.5-0.5c0.3,0,0.5,0.2,0.5,0.5v2.2
				C20.1,10.6,19.8,10.8,19.5,10.8"/>
			<path id="Path_48" class="st11" d="M8.7,16.8c-0.3,0-0.5-0.2-0.5-0.5v-1.6c0-0.3,0.2-0.5,0.5-0.5c0.3,0,0.5,0.2,0.5,0.5v1.6
				C9.2,16.6,9,16.8,8.7,16.8"/>
			<path id="Path_49" class="st11" d="M6,16.3c-0.3,0-0.5-0.2-0.5-0.5v-1.6c0-0.3,0.2-0.5,0.5-0.5s0.5,0.2,0.5,0.5v1.6
				C6.5,16,6.3,16.3,6,16.3L6,16.3"/>
			<path id="Path_50" class="st11" d="M3.3,15.7c-0.3,0-0.5-0.2-0.5-0.5v-1.6C2.7,13.3,3,13,3.3,13s0.5,0.2,0.5,0.5l0,0v1.6
				C3.8,15.5,3.6,15.7,3.3,15.7"/>
			<path id="Path_51" class="st11" d="M29.3,15.2h1.6v-6h-1.6V15.2z M31.1,16.3h-2.9V8.1h2.9c0.5,0,0.9,0.4,0.9,0.9c0,0,0,0,0,0v6.3
				C32,15.9,31.6,16.3,31.1,16.3L31.1,16.3z"/>
		</g>
		<g id="phase-1-changes" transform="translate(280 44)">
			<g id="PDP_-standard-delivery" transform="translate(0 1)">
				<g id="Group-10">
					<g id="Group-6">
						<g id="Express-Delivery">
							<path id="Path-17" class="st32" d="M20.2,12.7h7.2c0.7,0.1,1.4-0.2,1.9-0.8c0.5-0.6,0.7-1.3,0.7-2.1l-1-5.8
								c-0.3-1.2-1.3-2.1-2.6-2h-6.2V12.7z"/>
							<path id="Rectangle-4" class="st32" d="M8.5,0h10.6c1.1,0,2,0.9,2,2v8.3c0,1.1-0.9,2-2,2H8.5c-1.1,0-2-0.9-2-2c0,0,0,0,0,0V2
								C6.5,0.9,7.4,0,8.5,0z"/>
							<circle id="Oval-3" class="st32" cx="25.5" cy="12.9" r="2.3"/>
							<line id="Path-18" class="st33" x1="0" y1="7.7" x2="12" y2="7.8"/>
							<line id="Path-19" class="st33" x1="4" y1="3.6" x2="12" y2="3.6"/>
							<line id="Path-20" class="st33" x1="2.1" y1="5.6" x2="12" y2="5.6"/>
							<circle id="Oval-4" class="st32" cx="10.7" cy="12.9" r="2.3"/>
						</g>
					</g>
				</g>
			</g>
		</g>
		<g id="phase-1-changes-2" transform="translate(329.129 43.721)">
			<g id="PDP_-standard-delivery-2" transform="translate(0.871 0.279)">
				<g id="Group-10-2" transform="translate(0)">
					<g id="Group-3" transform="translate(0 0)">
						<g id="Group-12" transform="translate(0 0)">
							<g id="Cash-on-Delivery">
								<path id="Rectangle-5" class="st34" d="M3.1,1.9h20c0.5,0,0.9,0.4,0.9,0.9v10.9c0,0.5-0.4,0.9-0.9,0.9h-20
									c-0.5,0-0.9-0.4-0.9-0.9V2.8C2.2,2.3,2.6,1.9,3.1,1.9z"/>
								<path id="Rectangle-Copy" class="st34" d="M0.9,1.1h20.5c0.5,0,0.9,0.4,0.9,0.9v10c0,0.5-0.4,0.9-0.9,0.9H0.9
									C0.4,12.9,0,12.5,0,12V2C0,1.5,0.4,1.1,0.9,1.1z"/>
								<g id="_" transform="translate(8.365)">
									<text transform="matrix(1 0 0 1 -7.765625e-06 10)" class="st11 st35 st36">₹</text>
								</g>
								<path id="Path-11-2" class="st37" d="M19,3v6.6c0,0.5-0.3,1-0.9,1.1h-2.6"/>
								<path id="Path-11-Copy" class="st37" d="M2.5,10.6V4.1c0-0.5,0.3-1,0.9-1.1H6"/>
							</g>
						</g>
					</g>
				</g>
			</g>
		</g>
		<g id="cancellationAndReturn" transform="translate(374.5 44.5)">
			<g id="Group_3" transform="translate(3.824 4.703)">
				<path id="Path_52" class="st38" d="M0,15.8h24.6c3.3,0,6-2.7,6-6c0-3.3-2.7-6-6-6h-3.3"/>
				<path id="Path_53" class="st38" d="M25.1,0l-4.6,3.7l4.6,3.7"/>
			</g>
			<path id="Path_54" class="st39" d="M2.4,5.1h17.7v8.4H2.4V5.1z"/>
			<path id="Path_55" class="st39" d="M0.5,0.5h21.4v4.7H0.5V0.5z"/>
		</g>
		<path id="copyUrl" d="M25.5,172H3.6c-2,0-3.6,1.6-3.6,3.6v25.5h3.6v-25.5h21.8V172z M30.9,179.3h-20c-2,0-3.6,1.6-3.6,3.6v25.5
			c0,2,1.6,3.6,3.6,3.6h20c2,0,3.6-1.6,3.6-3.6v-25.5C34.5,180.9,32.9,179.3,30.9,179.3L30.9,179.3z M30.9,208.4h-20v-25.5h20V208.4
			z"/>
		<g id="facebook.ff323e22" transform="translate(-6.445 169.719)">
			<circle id="Ellipse_4" class="st40" cx="146.4" cy="22.3" r="20"/>
			<path id="Path_60" class="st10" d="M152.9,8.4h-4.4c-2.6,0-5.6,1.1-5.6,4.9c0,1.3,0,2.6,0,4h-3v4.8h3.1v13.9h5.8v-14h3.8l0.3-4.8
				h-4.2c0,0,0-2.1,0-2.7c0-1.5,1.6-1.4,1.7-1.4c0.7,0,2.2,0,2.6,0L152.9,8.4L152.9,8.4z"/>
		</g>
		<g id="twitter.22240c89" transform="translate(53.556 169.719)">
			<circle id="Ellipse_5" class="st41" cx="146.4" cy="22.3" r="20"/>
			<path id="Path_61" class="st10" d="M159,14.2c-1,0.4-2,0.7-3,0.8c1.1-0.7,1.9-1.7,2.3-2.9c-1,0.6-2.1,1-3.3,1.3
				c-2-2.1-5.3-2.2-7.4-0.2c-1.1,1-1.6,2.4-1.6,3.8c0,0.4,0,0.8,0.1,1.2c-4.2-0.2-8.1-2.2-10.8-5.5c-1.4,2.4-0.7,5.4,1.6,7
				c-0.8,0-1.6-0.2-2.4-0.7v0.1c0,2.5,1.8,4.6,4.2,5.1c-0.4,0.1-0.9,0.2-1.4,0.2c-0.3,0-0.7,0-1-0.1c0.7,2.1,2.6,3.6,4.9,3.6
				c-2.2,1.7-5,2.5-7.7,2.2c6.9,4.4,16.1,2.4,20.5-4.5c1.5-2.4,2.3-5.2,2.3-8c0-0.2,0-0.5,0-0.7C157.4,16.2,158.3,15.3,159,14.2z"/>
		</g>
		<g id="whatsapp.2defea70" transform="translate(60 172)">
			<path id="Path_62" class="st42" d="M0,40l3.4-10.3C-2.1,20.3,1,8.3,10.3,2.8s21.4-2.5,26.9,6.9s2.5,21.4-6.9,26.9
				c-5.9,3.5-13.1,3.7-19.2,0.5L0,40z"/>
			<path id="Path_63" class="st10" d="M32.9,26.2c-0.9-1.7-4.3-3.7-4.3-3.7c-0.8-0.4-1.7-0.5-2.1,0.3c-0.4,0.5-0.9,1-1.4,1.5
				c-1.1,0.9-2.7,0.8-3.6-0.3c0,0,0,0,0,0l-2.7-2.7l-2.7-2.7c-1.1-0.9-1.3-2.5-0.4-3.6c0,0,0,0,0,0c0.5-0.5,1-0.9,1.5-1.4
				c0.8-0.4,0.7-1.3,0.3-2.1c0,0-2-3.4-3.7-4.3c-0.7-0.4-1.6-0.3-2.2,0.3l-1.2,1.2c-3.9,3.9-2,8.2,1.9,12l3.5,3.5l3.5,3.5
				c3.9,3.9,8.2,5.7,12,1.9l1.2-1.2C33.2,27.8,33.3,26.9,32.9,26.2L32.9,26.2z"/>
		</g>
		<path id="cancel-2" class="st15" d="M492.7,91.7c-0.3-0.3-0.8-0.3-1.1,0c-0.3,0.3-0.3,0.8,0,1.1l10.1,10.1c0.3,0.3,0.8,0.3,1.1,0
			c0.3-0.3,0.3-0.8,0-1.1c0,0,0,0,0,0L492.7,91.7z M491.6,101.8c-0.3,0.3-0.3,0.8,0,1.1c0.3,0.3,0.8,0.3,1.1,0l10.1-10.1
			c0.3-0.3,0.3-0.8,0-1.1s-0.8-0.3-1.1,0c0,0,0,0,0,0L491.6,101.8z"/>
		<g id="arrowBackblack" transform="translate(523.91 89.175)">
			<path id="Shape-17" d="M0,6.9c0-0.2,0.1-0.4,0.2-0.5L6,0.2c0.3-0.3,0.7-0.3,1,0c0.3,0.3,0.3,0.7,0,1l-4.7,5h12.9
				c0.4,0,0.7,0.3,0.7,0.7c0,0.4-0.3,0.7-0.7,0.7l0,0H2.4l4.7,5c0.3,0.3,0.2,0.7,0,1c-0.3,0.3-0.8,0.3-1,0L0.2,7.4
				C0.1,7.3,0,7.1,0,6.9z"/>
		</g>
		<g id="tata_Logo.ec3d84d1" transform="translate(560 78.671)">
			<g id="Group_5">
				<path id="Path_64" class="st10" d="M0,10.3v2.3h2.2v5.7h3.1v-5.7h2.2v-2.3H0z M9.9,10.3l-3.1,8h3.1l1.7-4.8l1.7,4.8h3.1l-3.1-8
					H9.9z M15.7,10.3v2.3h2.2v5.7h3v-5.7h2.2v-2.3H15.7z M25.6,10.3l-3.1,8h3.1l1.7-4.8l1.7,4.8H32l-3.1-8H25.6z"/>
				<path id="Path_65" class="st10" d="M0,30.3c0-5.4,2.8-8,7.7-8c3,0,4.9,1.1,5.9,2.5c0.2,0.2,0.3,0.5,0.3,0.8
					c0,0.7-0.6,1.2-1.3,1.2c-0.4,0-0.7-0.2-1-0.5c-1-1.1-2.4-1.7-3.8-1.6c-3.3,0-4.7,1.9-4.7,5.6c0,4,1.5,5.6,4.7,5.6
					c1.5,0.1,2.9-0.4,4-1.5c0.3-0.3,0.6-0.5,1.1-0.5c0.7,0,1.3,0.5,1.3,1.2c0,0,0,0,0,0c0,0.2-0.1,0.5-0.2,0.7
					c-1.6,1.7-3.8,2.6-6.1,2.5C2.8,38.3,0,35.9,0,30.3"/>
				<path id="Path_66" class="st10" d="M23.4,35.2c0.7,0,1.2,0.5,1.3,1.2c0,0.7-0.5,1.2-1.2,1.3c0,0-0.1,0-0.1,0h-6.8
					c-0.7,0-1.3-0.5-1.3-1.2c0,0,0-0.1,0-0.1V23.6c0-0.7,0.6-1.3,1.4-1.3c0.7,0,1.3,0.6,1.3,1.3v11.6H23.4z"/>
				<path id="Path_67" class="st10" d="M30.7,36.3c-0.2,0.9-1.1,1.5-2,1.3c-0.6-0.1-1.2-0.7-1.3-1.3v-8.7c0.1-0.8,0.8-1.4,1.7-1.3
					c0.8-0.1,1.6,0.5,1.7,1.3L30.7,36.3z"/>
				<path id="Path_68" class="st10" d="M48.6,39.7c-0.4,0-0.7-0.1-1-0.4l-1.9-1.9l-0.5,0.3c-0.1,0.1-0.2,0.1-0.3,0.2l0,0
					c-0.2,0.1-0.4,0.2-0.6,0.3c-0.6,0.3-1.3,0.4-2,0.6c-0.4,0.1-0.8,0.1-1.3,0.1c-0.7,0-1.4-0.1-2.1-0.2c-1-0.3-2-0.7-2.9-1.4
					c-0.9-0.6-1.6-1.4-2.2-2.3c-0.1-0.2-0.3-0.5-0.4-0.7c-0.3-0.7-0.6-1.4-0.7-2.2l0-0.1c0,0,0-0.1,0-0.1l0-0.1
					c-0.1-0.9-0.1-1.8,0.1-2.6c0-0.2,0.1-0.3,0.1-0.5c0.3-1,0.7-2,1.4-2.9c0.6-0.9,1.4-1.6,2.4-2.2c0.4-0.2,0.7-0.4,1.1-0.6
					c0.6-0.3,1.3-0.4,2-0.5c0.4-0.1,0.8-0.1,1.2-0.1c0.7,0,1.4,0.1,2.1,0.3l0,0c0.1,0,0.2,0,0.2,0.1l0,0c1.7,0.6,3.2,1.6,4.3,3.1
					c0.1,0.2,0.2,0.3,0.3,0.5c0.4,0.7,0.7,1.5,1,2.2c0.1,0.3,0.1,0.7,0.2,1c0.1,1,0.1,2.1-0.2,3.1c-0.2,0.8-0.5,1.6-0.9,2.3
					l-0.3,0.5l1.9,1.9c0.5,0.5,0.6,1.4,0,1.9c0,0,0,0,0,0C49.3,39.5,49,39.7,48.6,39.7 M41.1,24.6c-0.3,0-0.6,0-0.9,0.1
					c-0.8,0.1-1.6,0.4-2.3,0.8h0c-0.7,0.4-1.2,0.9-1.7,1.6c-0.5,0.6-0.8,1.3-1,2.1c-0.2,0.8-0.2,1.6-0.1,2.3c0.2,1.6,1.1,3,2.4,3.9
					c1,0.8,2.3,1.2,3.6,1.2c0.3,0,0.6,0,0.9-0.1c0.5-0.1,1-0.2,1.4-0.4c1-0.4,1.9-1.1,2.5-2c0.5-0.6,0.8-1.3,1-2.1
					c0.2-0.8,0.2-1.6,0.1-2.4c-0.2-1.6-1.1-3-2.3-3.9C43.6,25,42.3,24.6,41.1,24.6"/>
			</g>
			<path id="Path_69" class="st43" d="M30.2,23.2c0.6,0.6,0.6,1.5,0,2s-1.5,0.6-2,0c0,0,0,0,0,0l-1.8-1.8c-0.6-0.5-0.6-1.5,0-2
				c0,0,0,0,0,0c0.6-0.6,1.5-0.6,2,0c0,0,0,0,0,0L30.2,23.2z"/>
		</g>
		<g id="show_pwd.9fc0a776" transform="translate(629.2 86.346)">
			<path id="Path_70" class="st10" d="M20.3,6c0.7,0.8,0.7,2,0,2.8c-3.3,3.9-6.6,5.4-9.5,5.4s-6.2-1.5-9.5-5.4C0.6,8,0.6,6.8,1.3,6
				c3.3-3.9,6.6-5.4,9.5-5.4S17,2.2,20.3,6z M19.2,7.9c0.2-0.3,0.2-0.6,0-0.9c-2.4-2.8-5.4-4.9-8.4-4.9S4.8,4.2,2.4,7
				c-0.2,0.3-0.2,0.6,0,0.9c2.4,2.8,5.4,4.9,8.4,4.9S16.8,10.7,19.2,7.9z"/>
			<path id="Path_71" class="st10" d="M10.9,3.8c1,0,1.9,0.4,2.5,1.1c0.7,0.7,1.1,1.6,1.1,2.6c0,2-1.7,3.6-3.6,3.5S7.3,9.3,7.4,7.3
				C7.4,5.4,9,3.8,10.9,3.8L10.9,3.8z M10.9,9.8c0.6,0,1.3-0.2,1.7-0.7c0.5-0.5,0.7-1.1,0.7-1.7c0-1.3-1.1-2.4-2.4-2.4
				c-1.3,0-2.4,1.1-2.4,2.4C8.6,8.8,9.6,9.8,10.9,9.8L10.9,9.8z"/>
		</g>

			<image style="overflow:visible;enable-background:new    ;" width="2000" height="2000" id="ficon.b8350bb7" xlink:href="85B31AE4.png"  transform="matrix(1.100000e-02 0 0 1.100000e-02 710 87)">
		</image>
		
			<image style="overflow:visible;enable-background:new    ;" width="768" height="768" id="glogo.806a7e9c" xlink:href="85B31AEC.png"  transform="matrix(2.864583e-02 0 0 2.864583e-02 670 86)">
		</image>
	</g>
</g>
</svg>
